<svg width="70" height="70" viewBox="0 0 70 70" fill="none" xmlns="http://www.w3.org/2000/svg">
<rect width="70" height="70" rx="35" fill="#EADDFF"/>
<path fill-rule="evenodd" clip-rule="evenodd" d="M45.5004 28C45.5004 33.799 40.7994 38.5 35.0004 38.5C29.2014 38.5 24.5004 33.799 24.5004 28C24.5004 22.201 29.2014 17.5 35.0004 17.5C40.7994 17.5 45.5004 22.201 45.5004 28ZM42.0004 28C42.0004 31.866 38.8664 35 35.0004 35C31.1344 35 28.0004 31.866 28.0004 28C28.0004 24.134 31.1344 21 35.0004 21C38.8664 21 42.0004 24.134 42.0004 28Z" fill="#4F378A"/>
<path d="M35.0004 43.75C23.6703 43.75 14.0167 50.4497 10.3394 59.8361C11.2352 60.7256 12.1788 61.567 13.1662 62.3561C15.9045 53.7385 24.4947 47.25 35.0004 47.25C45.5062 47.25 54.0964 53.7385 56.8347 62.3561C57.822 61.5671 58.7657 60.7256 59.6615 59.8361C55.9842 50.4497 46.3306 43.75 35.0004 43.75Z" fill="#4F378A"/>
</svg>
